<?xml version="1.0" encoding="utf-8"?>
<!DOCTYPE svg PUBLIC "-//W3C//DTD SVG 1.1//EN" "http://www.w3.org/Graphics/SVG/1.1/DTD/svg11.dtd">
<svg version="1.1" baseProfile="full"
 xmlns="http://www.w3.org/2000/svg"
 xmlns:xlink="http://www.w3.org/1999/xlink"
 xmlns:ev="http://www.w3.org/2001/xml-events" 
  height="255px" 
  width="616px" 
>
<path fill="rgb( 0, 203, 209 )"
 d="M35.732,0.994 C35.732,0.994 5.27,0.994 5.27,0.994 C2.355,0.994 0.002,3.344 0.002,6.24 C0.002,6.24 0.002,67.764 0.002,67.764 C0.002,70.657 2.355,73.005 5.27,73.005 C5.27,73.005 35.732,73.005 35.732,73.005 C38.641,73.005 40.998,70.657 40.998,67.764 C40.998,67.764 40.998,6.24 40.998,6.24 C40.998,3.344 38.641,0.994 35.732,0.994 ZM12.984,4.18 C12.984,4.18 28.024,4.18 28.024,4.18 C28.402,4.18 28.709,4.743 28.709,5.44 C28.709,6.14 28.402,6.707 28.024,6.707 C28.024,6.707 12.984,6.707 12.984,6.707 C12.602,6.707 12.299,6.14 12.299,5.44 C12.299,4.743 12.602,4.18 12.984,4.18 ZM20.503,67.828 C18.648,67.828 17.14,66.326 17.14,64.479 C17.14,62.634 18.648,61.137 20.503,61.137 C22.353,61.137 23.86,62.634 23.86,64.479 C23.86,66.326 22.353,67.828 20.503,67.828 ZM37.051,56.363 C37.051,56.363 3.951,56.363 3.951,56.363 C3.951,56.363 3.951,9.846 3.951,9.846 C3.951,9.846 37.051,9.846 37.051,9.846 C37.051,9.846 37.051,56.363 37.051,56.363 Z "/>
<path fill="rgb( 236, 228, 0 )"
 d="M266.647,11.357 C267.251,11.134 267.899,10.995 268.583,10.995 C268.583,10.995 334.417,10.995 334.417,10.995 C335.1,10.995 335.747,11.134 336.353,11.357 C336.353,11.357 306.855,38.914 306.855,38.914 C303.852,41.721 299.147,41.721 296.143,38.914 C296.143,38.914 266.647,11.357 266.647,11.357 ZM339.173,60.326 C339.684,59.489 339.995,58.519 339.995,57.47 C339.995,57.47 339.995,16.528 339.995,16.528 C339.995,15.784 339.842,15.077 339.573,14.428 C339.573,14.428 311.97,40.215 311.97,40.215 C311.97,40.215 339.173,60.326 339.173,60.326 ZM309.474,42.509 C307.183,44.455 304.346,45.444 301.499,45.444 C298.653,45.444 295.815,44.457 293.524,42.509 C293.524,42.509 266.399,62.562 266.399,62.562 C267.071,62.845 267.807,63.003 268.583,63.003 C268.583,63.003 334.417,63.003 334.417,63.003 C335.192,63.003 335.928,62.845 336.6,62.562 C336.6,62.562 309.474,42.509 309.474,42.509 ZM263.425,14.428 C263.156,15.077 263.003,15.784 263.003,16.528 C263.003,16.528 263.003,57.47 263.003,57.47 C263.003,58.519 263.315,59.489 263.826,60.326 C263.826,60.326 291.028,40.215 291.028,40.215 C291.028,40.215 263.425,14.428 263.425,14.428 Z "/>
<path fill="rgb( 232, 75, 60 )"
 d="M612.994,42.212 C613.262,40.512 613.404,38.773 613.404,36.998 C613.404,18.548 598.448,3.593 579.998,3.593 C578.228,3.593 576.484,3.739 574.785,4.005 C571.709,2.101 568.078,0.999 564.186,0.999 C553.037,0.999 544,10.036 544,21.186 C544,25.076 545.102,28.704 547.005,31.787 C546.742,33.49 546.597,35.224 546.597,36.999 C546.597,55.449 561.552,70.399 579.997,70.399 C581.769,70.399 583.514,70.264 585.212,69.995 C588.292,71.895 591.92,72.999 595.811,72.999 C606.962,72.999 615.999,63.961 615.999,52.811 C616,48.92 614.898,45.292 612.994,42.212 ZM595.859,52.19 C594.445,54.225 592.369,55.814 589.657,56.958 C586.939,58.104 583.727,58.674 580.017,58.674 C575.57,58.674 571.889,57.896 568.983,56.325 C566.923,55.2 565.248,53.69 563.96,51.808 C562.669,49.925 562.015,48.081 562.015,46.283 C562.015,45.221 562.42,44.298 563.207,43.547 C564.003,42.789 565.028,42.409 566.238,42.409 C567.229,42.409 568.08,42.708 568.773,43.298 C569.461,43.89 570.038,44.749 570.51,45.883 C571.075,47.198 571.69,48.296 572.343,49.172 C572.993,50.038 573.907,50.761 575.091,51.326 C576.262,51.893 577.821,52.177 579.771,52.177 C582.441,52.177 584.598,51.6 586.248,50.461 C587.908,49.312 588.705,47.914 588.705,46.223 C588.705,44.876 588.275,43.805 587.394,42.971 C586.505,42.126 585.356,41.482 583.931,41.032 C582.501,40.579 580.58,40.098 578.173,39.59 C574.941,38.886 572.238,38.064 570.049,37.122 C567.857,36.175 566.111,34.881 564.817,33.247 C563.521,31.596 562.874,29.545 562.874,27.115 C562.874,24.799 563.557,22.727 564.923,20.924 C566.289,19.115 568.265,17.731 570.841,16.767 C573.408,15.804 576.43,15.322 579.893,15.322 C582.662,15.322 585.057,15.642 587.084,16.28 C589.106,16.922 590.791,17.769 592.139,18.832 C593.478,19.893 594.463,21.012 595.087,22.186 C595.711,23.364 596.025,24.515 596.025,25.637 C596.025,26.681 595.62,27.628 594.832,28.457 C594.044,29.288 593.035,29.711 591.858,29.708 C590.796,29.708 589.963,29.463 589.386,28.944 C588.823,28.443 588.233,27.644 587.594,26.531 C586.786,24.979 585.819,23.769 584.694,22.904 C583.598,22.054 581.791,21.612 579.277,21.618 C576.95,21.618 575.089,22.093 573.684,23.023 C572.27,23.967 571.594,25.063 571.591,26.348 C571.594,27.152 571.825,27.831 572.291,28.411 C572.763,28.996 573.421,29.504 574.266,29.931 C575.112,30.366 575.972,30.702 576.837,30.944 C577.711,31.191 579.162,31.55 581.18,32.024 C583.709,32.57 586.004,33.179 588.065,33.843 C590.123,34.51 591.88,35.315 593.33,36.273 C594.793,37.229 595.936,38.447 596.751,39.919 C597.573,41.393 597.983,43.195 597.983,45.313 C597.986,47.865 597.275,50.159 595.859,52.19 Z "/>
<path fill="rgb( 255, 255, 255 )"
 d="M35.732,181.994 C35.732,181.994 5.27,181.994 5.27,181.994 C2.355,181.994 0.002,184.344 0.002,187.24 C0.002,187.24 0.002,248.764 0.002,248.764 C0.002,251.657 2.355,254.005 5.27,254.005 C5.27,254.005 35.732,254.005 35.732,254.005 C38.641,254.005 40.998,251.657 40.998,248.764 C40.998,248.764 40.998,187.24 40.998,187.24 C40.998,184.344 38.641,181.994 35.732,181.994 ZM12.984,185.18 C12.984,185.18 28.024,185.18 28.024,185.18 C28.402,185.18 28.709,185.743 28.709,186.44 C28.709,187.14 28.402,187.707 28.024,187.707 C28.024,187.707 12.984,187.707 12.984,187.707 C12.602,187.707 12.299,187.14 12.299,186.44 C12.299,185.743 12.602,185.18 12.984,185.18 ZM20.503,248.828 C18.648,248.828 17.14,247.326 17.14,245.479 C17.14,243.634 18.648,242.137 20.503,242.137 C22.353,242.137 23.86,243.634 23.86,245.479 C23.86,247.326 22.353,248.828 20.503,248.828 ZM37.051,237.363 C37.051,237.363 3.951,237.363 3.951,237.363 C3.951,237.363 3.951,190.846 3.951,190.846 C3.951,190.846 37.051,190.846 37.051,190.846 C37.051,190.846 37.051,237.363 37.051,237.363 Z "/>
<path fill="rgb( 255, 255, 255 )"
 d="M266.647,192.357 C267.251,192.134 267.899,191.995 268.583,191.995 C268.583,191.995 334.417,191.995 334.417,191.995 C335.1,191.995 335.747,192.134 336.353,192.357 C336.353,192.357 306.855,219.914 306.855,219.914 C303.852,222.721 299.147,222.721 296.143,219.914 C296.143,219.914 266.647,192.357 266.647,192.357 ZM339.173,241.326 C339.684,240.489 339.995,239.519 339.995,238.47 C339.995,238.47 339.995,197.528 339.995,197.528 C339.995,196.784 339.842,196.077 339.573,195.428 C339.573,195.428 311.97,221.215 311.97,221.215 C311.97,221.215 339.173,241.326 339.173,241.326 ZM309.474,223.509 C307.183,225.455 304.346,226.444 301.499,226.444 C298.653,226.444 295.815,225.457 293.524,223.509 C293.524,223.509 266.399,243.562 266.399,243.562 C267.071,243.845 267.807,244.003 268.583,244.003 C268.583,244.003 334.417,244.003 334.417,244.003 C335.192,244.003 335.928,243.845 336.6,243.562 C336.6,243.562 309.474,223.509 309.474,223.509 ZM263.425,195.428 C263.156,196.077 263.003,196.784 263.003,197.528 C263.003,197.528 263.003,238.47 263.003,238.47 C263.003,239.519 263.315,240.489 263.826,241.326 C263.826,241.326 291.028,221.215 291.028,221.215 C291.028,221.215 263.425,195.428 263.425,195.428 Z "/>
<path fill="rgb( 255, 255, 255 )"
 d="M612.994,223.212 C613.262,221.512 613.404,219.773 613.404,217.998 C613.404,199.548 598.448,184.593 579.998,184.593 C578.228,184.593 576.484,184.739 574.785,185.005 C571.709,183.101 568.078,181.999 564.186,181.999 C553.037,181.999 544,191.036 544,202.186 C544,206.076 545.102,209.704 547.005,212.787 C546.742,214.49 546.597,216.224 546.597,217.999 C546.597,236.449 561.552,251.399 579.997,251.399 C581.769,251.399 583.514,251.264 585.212,250.995 C588.292,252.895 591.92,253.999 595.811,253.999 C606.962,253.999 615.999,244.961 615.999,233.811 C616,229.92 614.898,226.292 612.994,223.212 ZM595.859,233.19 C594.445,235.225 592.369,236.814 589.657,237.958 C586.939,239.104 583.727,239.674 580.017,239.674 C575.57,239.674 571.889,238.896 568.983,237.325 C566.923,236.2 565.248,234.69 563.96,232.808 C562.669,230.925 562.015,229.081 562.015,227.283 C562.015,226.221 562.42,225.298 563.207,224.547 C564.003,223.789 565.028,223.409 566.238,223.409 C567.229,223.409 568.08,223.708 568.773,224.298 C569.461,224.89 570.038,225.749 570.51,226.883 C571.075,228.198 571.69,229.296 572.343,230.172 C572.993,231.038 573.907,231.761 575.091,232.326 C576.262,232.893 577.821,233.177 579.771,233.177 C582.441,233.177 584.598,232.6 586.248,231.461 C587.908,230.312 588.705,228.914 588.705,227.223 C588.705,225.876 588.275,224.805 587.394,223.971 C586.505,223.126 585.356,222.482 583.931,222.032 C582.501,221.579 580.58,221.098 578.173,220.59 C574.941,219.886 572.238,219.064 570.049,218.122 C567.857,217.175 566.111,215.881 564.817,214.247 C563.521,212.596 562.874,210.545 562.874,208.115 C562.874,205.799 563.557,203.727 564.923,201.924 C566.289,200.115 568.265,198.731 570.841,197.767 C573.408,196.804 576.43,196.322 579.893,196.322 C582.662,196.322 585.057,196.642 587.084,197.28 C589.106,197.922 590.791,198.769 592.139,199.832 C593.478,200.893 594.463,202.012 595.087,203.186 C595.711,204.364 596.025,205.515 596.025,206.637 C596.025,207.681 595.62,208.628 594.832,209.457 C594.044,210.288 593.035,210.711 591.858,210.708 C590.796,210.708 589.963,210.463 589.386,209.944 C588.823,209.443 588.233,208.644 587.594,207.531 C586.786,205.979 585.819,204.769 584.694,203.904 C583.598,203.054 581.791,202.612 579.277,202.618 C576.95,202.618 575.089,203.093 573.684,204.023 C572.27,204.967 571.594,206.063 571.591,207.348 C571.594,208.152 571.825,208.831 572.291,209.411 C572.763,209.996 573.421,210.504 574.266,210.931 C575.112,211.366 575.972,211.702 576.837,211.944 C577.711,212.191 579.162,212.55 581.18,213.024 C583.709,213.57 586.004,214.179 588.065,214.843 C590.123,215.51 591.88,216.315 593.33,217.273 C594.793,218.229 595.936,219.447 596.751,220.919 C597.573,222.393 597.983,224.195 597.983,226.313 C597.986,228.865 597.275,231.159 595.859,233.19 Z "/>
</svg>
